<svg width="33" height="28" viewBox="0 0 33 28" fill="none" xmlns="http://www.w3.org/2000/svg">
<path fill-rule="evenodd" clip-rule="evenodd" d="M27.6851 18.8878C27.8203 18.8102 27.9327 18.6984 28.0111 18.5636C28.0894 18.4288 28.1309 18.2757 28.1314 18.1198L28.1474 12.9758C28.1479 12.8199 28.1894 12.6669 28.2677 12.5321C28.346 12.3973 28.4584 12.2855 28.5936 12.2078L31.382 10.6061C31.5172 10.5285 31.6704 10.4877 31.8262 10.488C31.982 10.4883 32.1351 10.5295 32.27 10.6076C32.4048 10.6856 32.5168 10.7978 32.5947 10.9328C32.6726 11.0678 32.7136 11.2209 32.7136 11.3767V20.7287C32.7136 20.8851 32.6723 21.0387 32.5939 21.174C32.5156 21.3093 32.403 21.4215 32.2674 21.4994L21.7438 27.5438C21.6094 27.621 21.4571 27.6617 21.3022 27.6618C21.1472 27.662 20.9948 27.6216 20.8603 27.5447L12.6016 22.8212C12.4655 22.7435 12.3525 22.6312 12.2738 22.4957C12.1951 22.3602 12.1536 22.2063 12.1536 22.0496V17.3341C12.1536 17.3287 12.1598 17.3252 12.1651 17.3278C12.1696 17.3305 12.1758 17.3278 12.1758 17.3216V17.3163C12.1758 17.3127 12.1776 17.3092 12.1811 17.3074L18.9829 13.3998C18.9891 13.3963 18.9865 13.3865 18.9794 13.3865C18.9775 13.3865 18.9757 13.3858 18.9743 13.3844C18.973 13.3831 18.9723 13.3813 18.9723 13.3794L18.9856 8.75629C18.9862 8.59996 18.9456 8.44623 18.8678 8.31061C18.7901 8.17498 18.6779 8.06227 18.5427 7.98384C18.4074 7.9054 18.2539 7.86402 18.0976 7.86386C17.9413 7.86371 17.7876 7.90479 17.6523 7.98296L12.5971 10.8958C12.4622 10.9735 12.3093 11.0144 12.1536 11.0144C11.9979 11.0144 11.845 10.9735 11.71 10.8958L6.63892 7.97584C6.50382 7.89805 6.35063 7.85716 6.19473 7.85727C6.03883 7.85738 5.8857 7.89849 5.75071 7.97648C5.61572 8.05447 5.50361 8.16659 5.42564 8.30159C5.34767 8.43659 5.30657 8.58972 5.30648 8.74562V17.1012C5.30658 17.2569 5.26577 17.4099 5.18813 17.5449C5.11048 17.6799 4.99873 17.7922 4.86407 17.8704C4.7294 17.9486 4.57655 17.9901 4.42082 17.9907C4.26508 17.9912 4.11193 17.9509 3.9767 17.8736L1.16248 16.2647C1.02617 16.1869 0.91291 16.0743 0.83422 15.9385C0.75553 15.8026 0.714216 15.6484 0.714479 15.4914L0.739368 0.886955C0.739706 0.73126 0.780934 0.578386 0.858924 0.443632C0.936913 0.308879 1.04893 0.196974 1.18376 0.119117C1.31859 0.0412611 1.47151 0.000185112 1.6272 6.24208e-07C1.7829 -0.000183864 1.93591 0.0405296 2.07092 0.118066L11.7109 5.65496C11.8456 5.73231 11.9983 5.77302 12.1536 5.77302C12.3089 5.77302 12.4616 5.73231 12.5963 5.65496L22.2336 0.118066C22.3688 0.0404175 22.5221 -0.000299234 22.678 2.6905e-06C22.8339 0.000304615 22.987 0.0416146 23.1219 0.119786C23.2568 0.197958 23.3688 0.310241 23.4466 0.445365C23.5244 0.580489 23.5653 0.733701 23.5651 0.889622V15.4976C23.5652 15.6539 23.5241 15.8074 23.4459 15.9427C23.3677 16.078 23.2552 16.1903 23.1198 16.2683L18.0727 19.175C17.9371 19.2531 17.8246 19.3657 17.7465 19.5012C17.6683 19.6368 17.6274 19.7906 17.6278 19.9471C17.6281 20.1036 17.6698 20.2572 17.7485 20.3924C17.8273 20.5276 17.9403 20.6397 18.0763 20.7172L20.8603 22.3021C20.9948 22.3787 21.147 22.4188 21.3018 22.4185C21.4566 22.4182 21.6087 22.3774 21.7429 22.3003L27.6851 18.8878ZM28.2691 5.78384C28.2693 5.94104 28.3111 6.09539 28.3903 6.23116C28.4695 6.36693 28.5834 6.47926 28.7202 6.5567C28.857 6.63414 29.0119 6.67391 29.169 6.67196C29.3262 6.67002 29.4801 6.62642 29.6149 6.54562L32.2816 4.94562C32.4132 4.86674 32.5222 4.75512 32.5979 4.62162C32.6736 4.48813 32.7135 4.33731 32.7136 4.18384V0.923399C32.7133 0.766278 32.6714 0.612038 32.5921 0.476393C32.5128 0.340747 32.399 0.228544 32.2622 0.151213C32.1254 0.0738824 31.9706 0.0341873 31.8135 0.0361719C31.6564 0.0381564 31.5026 0.0817496 31.3678 0.162511L28.7011 1.76251C28.5695 1.84139 28.4605 1.95301 28.3848 2.08651C28.3091 2.22 28.2693 2.37082 28.2691 2.52429V5.78473V5.78384Z" fill="#007FFF"/>
</svg>
